<mxfile host="app.diagrams.net" modified="2023-11-23T09:22:40.978Z" agent="Mozilla/5.0 (Windows NT 10.0; Win64; x64) AppleWebKit/537.36 (KHTML, like Gecko) Chrome/118.0.0.0 Safari/537.36 OPR/104.0.0.0" etag="zhu_4QUg_WdFXhdb-U9p" version="22.1.3" type="github">
  <diagram name="Page-1" id="2c4490ee-f0b8-94ab-5012-d5dc3445f7a3">
    <mxGraphModel dx="1902" dy="808" grid="1" gridSize="10" guides="1" tooltips="1" connect="0" arrows="1" fold="1" page="1" pageScale="1.5" pageWidth="1169" pageHeight="826" background="none" math="0" shadow="0">
      <root>
        <mxCell id="0" style=";html=1;" />
        <mxCell id="1" style=";html=1;" parent="0" />
        <mxCell id="67c90442a009f359-279" value="Novembre" style="strokeWidth=1;fontStyle=0;html=1;" parent="1" vertex="1">
          <mxGeometry x="800" y="439" width="320" height="20" as="geometry" />
        </mxCell>
        <mxCell id="7a8b956e7d50b54d-104" value="DÃ©cembre" style="strokeWidth=1;fontStyle=0;html=1;" parent="1" vertex="1">
          <mxGeometry x="1120" y="439" width="320" height="20" as="geometry" />
        </mxCell>
        <mxCell id="7a8b956e7d50b54d-109" value="Janvier" style="strokeWidth=1;fontStyle=0;html=1;" parent="1" vertex="1">
          <mxGeometry x="1440" y="439" width="320" height="20" as="geometry" />
        </mxCell>
        <mxCell id="7a8b956e7d50b54d-145" value="Octobre" style="strokeWidth=1;fontStyle=0;html=1;" parent="1" vertex="1">
          <mxGeometry x="480" y="439" width="320" height="20" as="geometry" />
        </mxCell>
        <mxCell id="7a8b956e7d50b54d-151" value="Septembre" style="strokeWidth=1;fontStyle=0;html=1;" parent="1" vertex="1">
          <mxGeometry x="160" y="439" width="320" height="20" as="geometry" />
        </mxCell>
        <mxCell id="7a8b956e7d50b54d-152" value="Semaine 1" style="strokeWidth=1;fontStyle=0;html=1;" parent="1" vertex="1">
          <mxGeometry x="160" y="460" width="80" height="20" as="geometry" />
        </mxCell>
        <mxCell id="7a8b956e7d50b54d-357" value="Task 5" style="align=left;strokeColor=#6c8ebf;html=1;fillColor=#dae8fc;" parent="1" vertex="1">
          <mxGeometry x="590" y="380" width="60" height="20" as="geometry" />
        </mxCell>
        <mxCell id="7a8b956e7d50b54d-358" value="Task 6" style="align=left;strokeColor=#6c8ebf;html=1;fillColor=#dae8fc;" parent="1" vertex="1">
          <mxGeometry x="650" y="390" width="180" height="20" as="geometry" />
        </mxCell>
        <mxCell id="7a8b956e7d50b54d-359" value="Task 7" style="align=left;strokeColor=#6c8ebf;html=1;fillColor=#dae8fc;" parent="1" vertex="1">
          <mxGeometry x="665" y="330" width="150" height="20" as="geometry" />
        </mxCell>
        <mxCell id="KohmYElV7J4Lf4DfOWHx-1" value="Arthur Gros" style="whiteSpace=wrap;html=1;align=center;strokeColor=#CCCCCC;" parent="1" vertex="1">
          <mxGeometry y="479" width="160" height="41" as="geometry" />
        </mxCell>
        <mxCell id="KohmYElV7J4Lf4DfOWHx-3" value="Benjamin Haurogne" style="whiteSpace=wrap;html=1;align=center;strokeColor=#CCCCCC;" parent="1" vertex="1">
          <mxGeometry y="559" width="160" height="41" as="geometry" />
        </mxCell>
        <mxCell id="KohmYElV7J4Lf4DfOWHx-4" value="Benoit Maurice" style="whiteSpace=wrap;html=1;align=center;strokeColor=#CCCCCC;" parent="1" vertex="1">
          <mxGeometry y="639" width="160" height="41" as="geometry" />
        </mxCell>
        <mxCell id="KohmYElV7J4Lf4DfOWHx-5" value="Donovan Casagrande" style="whiteSpace=wrap;html=1;align=center;strokeColor=#CCCCCC;" parent="1" vertex="1">
          <mxGeometry y="719" width="160" height="41" as="geometry" />
        </mxCell>
        <mxCell id="6z6v71Y1guzTuRLKmEV8-2" value="Semaine 2" style="strokeWidth=1;fontStyle=0;html=1;" vertex="1" parent="1">
          <mxGeometry x="240" y="460" width="80" height="20" as="geometry" />
        </mxCell>
        <mxCell id="6z6v71Y1guzTuRLKmEV8-3" value="Semaine 3" style="strokeWidth=1;fontStyle=0;html=1;" vertex="1" parent="1">
          <mxGeometry x="320" y="460" width="80" height="20" as="geometry" />
        </mxCell>
        <mxCell id="6z6v71Y1guzTuRLKmEV8-4" value="Semaine 4" style="strokeWidth=1;fontStyle=0;html=1;" vertex="1" parent="1">
          <mxGeometry x="400" y="460" width="80" height="20" as="geometry" />
        </mxCell>
        <mxCell id="6z6v71Y1guzTuRLKmEV8-54" value="" style="align=left;strokeColor=#CCCCCC;html=1;" vertex="1" parent="1">
          <mxGeometry x="320" y="500" width="80" height="20" as="geometry" />
        </mxCell>
        <mxCell id="6z6v71Y1guzTuRLKmEV8-55" value="" style="align=left;strokeColor=#CCCCCC;html=1;" vertex="1" parent="1">
          <mxGeometry x="320" y="520" width="80" height="20" as="geometry" />
        </mxCell>
        <mxCell id="6z6v71Y1guzTuRLKmEV8-56" value="" style="align=left;strokeColor=#CCCCCC;html=1;" vertex="1" parent="1">
          <mxGeometry x="320" y="540" width="80" height="20" as="geometry" />
        </mxCell>
        <mxCell id="6z6v71Y1guzTuRLKmEV8-57" value="" style="align=left;strokeColor=#CCCCCC;html=1;" vertex="1" parent="1">
          <mxGeometry x="320" y="560" width="80" height="20" as="geometry" />
        </mxCell>
        <mxCell id="6z6v71Y1guzTuRLKmEV8-58" value="" style="align=left;strokeColor=#CCCCCC;html=1;" vertex="1" parent="1">
          <mxGeometry x="320" y="580" width="80" height="20" as="geometry" />
        </mxCell>
        <mxCell id="6z6v71Y1guzTuRLKmEV8-59" value="" style="align=left;strokeColor=#CCCCCC;html=1;" vertex="1" parent="1">
          <mxGeometry x="320" y="600" width="80" height="20" as="geometry" />
        </mxCell>
        <mxCell id="6z6v71Y1guzTuRLKmEV8-60" value="" style="align=left;strokeColor=#CCCCCC;html=1;" vertex="1" parent="1">
          <mxGeometry x="320" y="620" width="80" height="20" as="geometry" />
        </mxCell>
        <mxCell id="6z6v71Y1guzTuRLKmEV8-61" value="" style="align=left;strokeColor=#CCCCCC;html=1;" vertex="1" parent="1">
          <mxGeometry x="320" y="640" width="80" height="20" as="geometry" />
        </mxCell>
        <mxCell id="6z6v71Y1guzTuRLKmEV8-62" value="" style="align=left;strokeColor=#CCCCCC;html=1;" vertex="1" parent="1">
          <mxGeometry x="320" y="660" width="80" height="20" as="geometry" />
        </mxCell>
        <mxCell id="6z6v71Y1guzTuRLKmEV8-63" value="" style="align=left;strokeColor=#CCCCCC;html=1;" vertex="1" parent="1">
          <mxGeometry x="320" y="680" width="80" height="20" as="geometry" />
        </mxCell>
        <mxCell id="6z6v71Y1guzTuRLKmEV8-64" value="" style="align=left;strokeColor=#CCCCCC;html=1;" vertex="1" parent="1">
          <mxGeometry x="320" y="700" width="80" height="20" as="geometry" />
        </mxCell>
        <mxCell id="6z6v71Y1guzTuRLKmEV8-65" value="" style="align=left;strokeColor=#CCCCCC;html=1;" vertex="1" parent="1">
          <mxGeometry x="320" y="720" width="80" height="20" as="geometry" />
        </mxCell>
        <mxCell id="6z6v71Y1guzTuRLKmEV8-66" value="" style="align=left;strokeColor=#CCCCCC;html=1;" vertex="1" parent="1">
          <mxGeometry x="320" y="740" width="80" height="20" as="geometry" />
        </mxCell>
        <mxCell id="6z6v71Y1guzTuRLKmEV8-68" value="" style="align=left;strokeColor=#CCCCCC;html=1;" vertex="1" parent="1">
          <mxGeometry x="400" y="500" width="80" height="20" as="geometry" />
        </mxCell>
        <mxCell id="6z6v71Y1guzTuRLKmEV8-69" value="" style="align=left;strokeColor=#CCCCCC;html=1;" vertex="1" parent="1">
          <mxGeometry x="400" y="520" width="80" height="20" as="geometry" />
        </mxCell>
        <mxCell id="6z6v71Y1guzTuRLKmEV8-70" value="" style="align=left;strokeColor=#CCCCCC;html=1;" vertex="1" parent="1">
          <mxGeometry x="400" y="540" width="80" height="20" as="geometry" />
        </mxCell>
        <mxCell id="6z6v71Y1guzTuRLKmEV8-71" value="" style="align=left;strokeColor=#CCCCCC;html=1;" vertex="1" parent="1">
          <mxGeometry x="400" y="560" width="80" height="20" as="geometry" />
        </mxCell>
        <mxCell id="6z6v71Y1guzTuRLKmEV8-72" value="" style="align=left;strokeColor=#CCCCCC;html=1;" vertex="1" parent="1">
          <mxGeometry x="400" y="580" width="80" height="20" as="geometry" />
        </mxCell>
        <mxCell id="6z6v71Y1guzTuRLKmEV8-73" value="" style="align=left;strokeColor=#CCCCCC;html=1;" vertex="1" parent="1">
          <mxGeometry x="400" y="600" width="80" height="20" as="geometry" />
        </mxCell>
        <mxCell id="6z6v71Y1guzTuRLKmEV8-74" value="" style="align=left;strokeColor=#CCCCCC;html=1;" vertex="1" parent="1">
          <mxGeometry x="400" y="620" width="80" height="20" as="geometry" />
        </mxCell>
        <mxCell id="6z6v71Y1guzTuRLKmEV8-75" value="" style="align=left;strokeColor=#CCCCCC;html=1;" vertex="1" parent="1">
          <mxGeometry x="400" y="640" width="80" height="20" as="geometry" />
        </mxCell>
        <mxCell id="6z6v71Y1guzTuRLKmEV8-76" value="" style="align=left;strokeColor=#CCCCCC;html=1;" vertex="1" parent="1">
          <mxGeometry x="400" y="660" width="80" height="20" as="geometry" />
        </mxCell>
        <mxCell id="6z6v71Y1guzTuRLKmEV8-77" value="" style="align=left;strokeColor=#CCCCCC;html=1;" vertex="1" parent="1">
          <mxGeometry x="400" y="680" width="80" height="20" as="geometry" />
        </mxCell>
        <mxCell id="6z6v71Y1guzTuRLKmEV8-78" value="" style="align=left;strokeColor=#CCCCCC;html=1;" vertex="1" parent="1">
          <mxGeometry x="400" y="700" width="80" height="20" as="geometry" />
        </mxCell>
        <mxCell id="6z6v71Y1guzTuRLKmEV8-79" value="" style="align=left;strokeColor=#CCCCCC;html=1;" vertex="1" parent="1">
          <mxGeometry x="400" y="720" width="80" height="20" as="geometry" />
        </mxCell>
        <mxCell id="6z6v71Y1guzTuRLKmEV8-80" value="" style="align=left;strokeColor=#CCCCCC;html=1;" vertex="1" parent="1">
          <mxGeometry x="400" y="740" width="80" height="20" as="geometry" />
        </mxCell>
        <mxCell id="6z6v71Y1guzTuRLKmEV8-82" value="" style="align=left;strokeColor=#CCCCCC;html=1;" vertex="1" parent="1">
          <mxGeometry x="480" y="500" width="80" height="20" as="geometry" />
        </mxCell>
        <mxCell id="6z6v71Y1guzTuRLKmEV8-83" value="" style="align=left;strokeColor=#CCCCCC;html=1;" vertex="1" parent="1">
          <mxGeometry x="480" y="520" width="80" height="20" as="geometry" />
        </mxCell>
        <mxCell id="6z6v71Y1guzTuRLKmEV8-84" value="" style="align=left;strokeColor=#CCCCCC;html=1;" vertex="1" parent="1">
          <mxGeometry x="480" y="540" width="80" height="20" as="geometry" />
        </mxCell>
        <mxCell id="6z6v71Y1guzTuRLKmEV8-85" value="" style="align=left;strokeColor=#CCCCCC;html=1;" vertex="1" parent="1">
          <mxGeometry x="480" y="560" width="80" height="20" as="geometry" />
        </mxCell>
        <mxCell id="6z6v71Y1guzTuRLKmEV8-86" value="" style="align=left;strokeColor=#CCCCCC;html=1;" vertex="1" parent="1">
          <mxGeometry x="480" y="580" width="80" height="20" as="geometry" />
        </mxCell>
        <mxCell id="6z6v71Y1guzTuRLKmEV8-87" value="" style="align=left;strokeColor=#CCCCCC;html=1;" vertex="1" parent="1">
          <mxGeometry x="480" y="600" width="80" height="20" as="geometry" />
        </mxCell>
        <mxCell id="6z6v71Y1guzTuRLKmEV8-88" value="" style="align=left;strokeColor=#CCCCCC;html=1;" vertex="1" parent="1">
          <mxGeometry x="480" y="620" width="80" height="20" as="geometry" />
        </mxCell>
        <mxCell id="6z6v71Y1guzTuRLKmEV8-89" value="" style="align=left;strokeColor=#CCCCCC;html=1;" vertex="1" parent="1">
          <mxGeometry x="480" y="640" width="80" height="20" as="geometry" />
        </mxCell>
        <mxCell id="6z6v71Y1guzTuRLKmEV8-90" value="" style="align=left;strokeColor=#CCCCCC;html=1;" vertex="1" parent="1">
          <mxGeometry x="480" y="660" width="80" height="20" as="geometry" />
        </mxCell>
        <mxCell id="6z6v71Y1guzTuRLKmEV8-91" value="" style="align=left;strokeColor=#CCCCCC;html=1;" vertex="1" parent="1">
          <mxGeometry x="480" y="680" width="80" height="20" as="geometry" />
        </mxCell>
        <mxCell id="6z6v71Y1guzTuRLKmEV8-92" value="" style="align=left;strokeColor=#CCCCCC;html=1;" vertex="1" parent="1">
          <mxGeometry x="480" y="700" width="80" height="20" as="geometry" />
        </mxCell>
        <mxCell id="6z6v71Y1guzTuRLKmEV8-93" value="" style="align=left;strokeColor=#CCCCCC;html=1;" vertex="1" parent="1">
          <mxGeometry x="480" y="720" width="80" height="20" as="geometry" />
        </mxCell>
        <mxCell id="6z6v71Y1guzTuRLKmEV8-94" value="" style="align=left;strokeColor=#CCCCCC;html=1;" vertex="1" parent="1">
          <mxGeometry x="480" y="740" width="80" height="20" as="geometry" />
        </mxCell>
        <mxCell id="6z6v71Y1guzTuRLKmEV8-96" value="" style="align=left;strokeColor=#CCCCCC;html=1;" vertex="1" parent="1">
          <mxGeometry x="560" y="500" width="80" height="20" as="geometry" />
        </mxCell>
        <mxCell id="6z6v71Y1guzTuRLKmEV8-97" value="" style="align=left;strokeColor=#CCCCCC;html=1;" vertex="1" parent="1">
          <mxGeometry x="560" y="520" width="80" height="20" as="geometry" />
        </mxCell>
        <mxCell id="6z6v71Y1guzTuRLKmEV8-98" value="" style="align=left;strokeColor=#CCCCCC;html=1;" vertex="1" parent="1">
          <mxGeometry x="560" y="540" width="80" height="20" as="geometry" />
        </mxCell>
        <mxCell id="6z6v71Y1guzTuRLKmEV8-99" value="" style="align=left;strokeColor=#CCCCCC;html=1;" vertex="1" parent="1">
          <mxGeometry x="560" y="560" width="80" height="20" as="geometry" />
        </mxCell>
        <mxCell id="6z6v71Y1guzTuRLKmEV8-100" value="" style="align=left;strokeColor=#CCCCCC;html=1;" vertex="1" parent="1">
          <mxGeometry x="560" y="580" width="80" height="20" as="geometry" />
        </mxCell>
        <mxCell id="6z6v71Y1guzTuRLKmEV8-101" value="" style="align=left;strokeColor=#CCCCCC;html=1;" vertex="1" parent="1">
          <mxGeometry x="560" y="600" width="80" height="20" as="geometry" />
        </mxCell>
        <mxCell id="6z6v71Y1guzTuRLKmEV8-102" value="" style="align=left;strokeColor=#CCCCCC;html=1;" vertex="1" parent="1">
          <mxGeometry x="560" y="620" width="80" height="20" as="geometry" />
        </mxCell>
        <mxCell id="6z6v71Y1guzTuRLKmEV8-103" value="" style="align=left;strokeColor=#CCCCCC;html=1;" vertex="1" parent="1">
          <mxGeometry x="560" y="640" width="80" height="20" as="geometry" />
        </mxCell>
        <mxCell id="6z6v71Y1guzTuRLKmEV8-104" value="" style="align=left;strokeColor=#CCCCCC;html=1;" vertex="1" parent="1">
          <mxGeometry x="560" y="660" width="80" height="20" as="geometry" />
        </mxCell>
        <mxCell id="6z6v71Y1guzTuRLKmEV8-105" value="" style="align=left;strokeColor=#CCCCCC;html=1;" vertex="1" parent="1">
          <mxGeometry x="560" y="680" width="80" height="20" as="geometry" />
        </mxCell>
        <mxCell id="6z6v71Y1guzTuRLKmEV8-106" value="" style="align=left;strokeColor=#CCCCCC;html=1;" vertex="1" parent="1">
          <mxGeometry x="560" y="700" width="80" height="20" as="geometry" />
        </mxCell>
        <mxCell id="6z6v71Y1guzTuRLKmEV8-107" value="" style="align=left;strokeColor=#CCCCCC;html=1;" vertex="1" parent="1">
          <mxGeometry x="560" y="720" width="80" height="20" as="geometry" />
        </mxCell>
        <mxCell id="6z6v71Y1guzTuRLKmEV8-108" value="" style="align=left;strokeColor=#CCCCCC;html=1;" vertex="1" parent="1">
          <mxGeometry x="560" y="740" width="80" height="20" as="geometry" />
        </mxCell>
        <mxCell id="6z6v71Y1guzTuRLKmEV8-124" value="" style="align=left;strokeColor=#CCCCCC;html=1;" vertex="1" parent="1">
          <mxGeometry x="720" y="500" width="80" height="20" as="geometry" />
        </mxCell>
        <mxCell id="6z6v71Y1guzTuRLKmEV8-125" value="" style="align=left;strokeColor=#CCCCCC;html=1;" vertex="1" parent="1">
          <mxGeometry x="720" y="520" width="80" height="20" as="geometry" />
        </mxCell>
        <mxCell id="6z6v71Y1guzTuRLKmEV8-126" value="" style="align=left;strokeColor=#CCCCCC;html=1;" vertex="1" parent="1">
          <mxGeometry x="720" y="540" width="80" height="20" as="geometry" />
        </mxCell>
        <mxCell id="6z6v71Y1guzTuRLKmEV8-127" value="" style="align=left;strokeColor=#CCCCCC;html=1;" vertex="1" parent="1">
          <mxGeometry x="720" y="560" width="80" height="20" as="geometry" />
        </mxCell>
        <mxCell id="6z6v71Y1guzTuRLKmEV8-128" value="" style="align=left;strokeColor=#CCCCCC;html=1;" vertex="1" parent="1">
          <mxGeometry x="720" y="580" width="80" height="20" as="geometry" />
        </mxCell>
        <mxCell id="6z6v71Y1guzTuRLKmEV8-129" value="" style="align=left;strokeColor=#CCCCCC;html=1;" vertex="1" parent="1">
          <mxGeometry x="720" y="600" width="80" height="20" as="geometry" />
        </mxCell>
        <mxCell id="6z6v71Y1guzTuRLKmEV8-130" value="" style="align=left;strokeColor=#CCCCCC;html=1;" vertex="1" parent="1">
          <mxGeometry x="720" y="620" width="80" height="20" as="geometry" />
        </mxCell>
        <mxCell id="6z6v71Y1guzTuRLKmEV8-131" value="" style="align=left;strokeColor=#CCCCCC;html=1;" vertex="1" parent="1">
          <mxGeometry x="720" y="640" width="80" height="20" as="geometry" />
        </mxCell>
        <mxCell id="6z6v71Y1guzTuRLKmEV8-132" value="" style="align=left;strokeColor=#CCCCCC;html=1;" vertex="1" parent="1">
          <mxGeometry x="720" y="660" width="80" height="20" as="geometry" />
        </mxCell>
        <mxCell id="6z6v71Y1guzTuRLKmEV8-133" value="" style="align=left;strokeColor=#CCCCCC;html=1;" vertex="1" parent="1">
          <mxGeometry x="720" y="680" width="80" height="20" as="geometry" />
        </mxCell>
        <mxCell id="6z6v71Y1guzTuRLKmEV8-134" value="" style="align=left;strokeColor=#CCCCCC;html=1;" vertex="1" parent="1">
          <mxGeometry x="720" y="700" width="80" height="20" as="geometry" />
        </mxCell>
        <mxCell id="6z6v71Y1guzTuRLKmEV8-135" value="" style="align=left;strokeColor=#CCCCCC;html=1;" vertex="1" parent="1">
          <mxGeometry x="720" y="720" width="80" height="20" as="geometry" />
        </mxCell>
        <mxCell id="6z6v71Y1guzTuRLKmEV8-136" value="" style="align=left;strokeColor=#CCCCCC;html=1;" vertex="1" parent="1">
          <mxGeometry x="720" y="740" width="80" height="20" as="geometry" />
        </mxCell>
        <mxCell id="6z6v71Y1guzTuRLKmEV8-138" value="" style="align=left;strokeColor=#CCCCCC;html=1;" vertex="1" parent="1">
          <mxGeometry x="800" y="500" width="80" height="20" as="geometry" />
        </mxCell>
        <mxCell id="6z6v71Y1guzTuRLKmEV8-139" value="" style="align=left;strokeColor=#CCCCCC;html=1;" vertex="1" parent="1">
          <mxGeometry x="800" y="520" width="80" height="20" as="geometry" />
        </mxCell>
        <mxCell id="6z6v71Y1guzTuRLKmEV8-140" value="" style="align=left;strokeColor=#CCCCCC;html=1;" vertex="1" parent="1">
          <mxGeometry x="800" y="540" width="80" height="20" as="geometry" />
        </mxCell>
        <mxCell id="6z6v71Y1guzTuRLKmEV8-141" value="" style="align=left;strokeColor=#CCCCCC;html=1;" vertex="1" parent="1">
          <mxGeometry x="800" y="560" width="80" height="20" as="geometry" />
        </mxCell>
        <mxCell id="6z6v71Y1guzTuRLKmEV8-142" value="" style="align=left;strokeColor=#CCCCCC;html=1;" vertex="1" parent="1">
          <mxGeometry x="800" y="580" width="80" height="20" as="geometry" />
        </mxCell>
        <mxCell id="6z6v71Y1guzTuRLKmEV8-143" value="" style="align=left;strokeColor=#CCCCCC;html=1;" vertex="1" parent="1">
          <mxGeometry x="800" y="600" width="80" height="20" as="geometry" />
        </mxCell>
        <mxCell id="6z6v71Y1guzTuRLKmEV8-144" value="" style="align=left;strokeColor=#CCCCCC;html=1;" vertex="1" parent="1">
          <mxGeometry x="800" y="620" width="80" height="20" as="geometry" />
        </mxCell>
        <mxCell id="6z6v71Y1guzTuRLKmEV8-145" value="" style="align=left;strokeColor=#CCCCCC;html=1;" vertex="1" parent="1">
          <mxGeometry x="800" y="640" width="80" height="20" as="geometry" />
        </mxCell>
        <mxCell id="6z6v71Y1guzTuRLKmEV8-146" value="" style="align=left;strokeColor=#CCCCCC;html=1;" vertex="1" parent="1">
          <mxGeometry x="800" y="660" width="80" height="20" as="geometry" />
        </mxCell>
        <mxCell id="6z6v71Y1guzTuRLKmEV8-147" value="" style="align=left;strokeColor=#CCCCCC;html=1;" vertex="1" parent="1">
          <mxGeometry x="800" y="680" width="80" height="20" as="geometry" />
        </mxCell>
        <mxCell id="6z6v71Y1guzTuRLKmEV8-148" value="" style="align=left;strokeColor=#CCCCCC;html=1;" vertex="1" parent="1">
          <mxGeometry x="800" y="700" width="80" height="20" as="geometry" />
        </mxCell>
        <mxCell id="6z6v71Y1guzTuRLKmEV8-149" value="" style="align=left;strokeColor=#CCCCCC;html=1;" vertex="1" parent="1">
          <mxGeometry x="800" y="720" width="80" height="20" as="geometry" />
        </mxCell>
        <mxCell id="6z6v71Y1guzTuRLKmEV8-150" value="" style="align=left;strokeColor=#CCCCCC;html=1;" vertex="1" parent="1">
          <mxGeometry x="800" y="740" width="80" height="20" as="geometry" />
        </mxCell>
        <mxCell id="6z6v71Y1guzTuRLKmEV8-152" value="" style="align=left;strokeColor=#CCCCCC;html=1;" vertex="1" parent="1">
          <mxGeometry x="880" y="500" width="80" height="20" as="geometry" />
        </mxCell>
        <mxCell id="6z6v71Y1guzTuRLKmEV8-153" value="" style="align=left;strokeColor=#CCCCCC;html=1;" vertex="1" parent="1">
          <mxGeometry x="880" y="520" width="80" height="20" as="geometry" />
        </mxCell>
        <mxCell id="6z6v71Y1guzTuRLKmEV8-154" value="" style="align=left;strokeColor=#CCCCCC;html=1;" vertex="1" parent="1">
          <mxGeometry x="880" y="540" width="80" height="20" as="geometry" />
        </mxCell>
        <mxCell id="6z6v71Y1guzTuRLKmEV8-155" value="" style="align=left;strokeColor=#CCCCCC;html=1;" vertex="1" parent="1">
          <mxGeometry x="880" y="560" width="80" height="20" as="geometry" />
        </mxCell>
        <mxCell id="6z6v71Y1guzTuRLKmEV8-156" value="" style="align=left;strokeColor=#CCCCCC;html=1;" vertex="1" parent="1">
          <mxGeometry x="880" y="580" width="80" height="20" as="geometry" />
        </mxCell>
        <mxCell id="6z6v71Y1guzTuRLKmEV8-157" value="" style="align=left;strokeColor=#CCCCCC;html=1;" vertex="1" parent="1">
          <mxGeometry x="880" y="600" width="80" height="20" as="geometry" />
        </mxCell>
        <mxCell id="6z6v71Y1guzTuRLKmEV8-158" value="" style="align=left;strokeColor=#CCCCCC;html=1;" vertex="1" parent="1">
          <mxGeometry x="880" y="620" width="80" height="20" as="geometry" />
        </mxCell>
        <mxCell id="6z6v71Y1guzTuRLKmEV8-159" value="" style="align=left;strokeColor=#CCCCCC;html=1;" vertex="1" parent="1">
          <mxGeometry x="880" y="640" width="80" height="20" as="geometry" />
        </mxCell>
        <mxCell id="6z6v71Y1guzTuRLKmEV8-160" value="" style="align=left;strokeColor=#CCCCCC;html=1;" vertex="1" parent="1">
          <mxGeometry x="880" y="660" width="80" height="20" as="geometry" />
        </mxCell>
        <mxCell id="6z6v71Y1guzTuRLKmEV8-161" value="" style="align=left;strokeColor=#CCCCCC;html=1;" vertex="1" parent="1">
          <mxGeometry x="880" y="680" width="80" height="20" as="geometry" />
        </mxCell>
        <mxCell id="6z6v71Y1guzTuRLKmEV8-162" value="" style="align=left;strokeColor=#CCCCCC;html=1;" vertex="1" parent="1">
          <mxGeometry x="880" y="700" width="80" height="20" as="geometry" />
        </mxCell>
        <mxCell id="6z6v71Y1guzTuRLKmEV8-163" value="" style="align=left;strokeColor=#CCCCCC;html=1;" vertex="1" parent="1">
          <mxGeometry x="880" y="720" width="80" height="20" as="geometry" />
        </mxCell>
        <mxCell id="6z6v71Y1guzTuRLKmEV8-164" value="" style="align=left;strokeColor=#CCCCCC;html=1;" vertex="1" parent="1">
          <mxGeometry x="880" y="740" width="80" height="20" as="geometry" />
        </mxCell>
        <mxCell id="6z6v71Y1guzTuRLKmEV8-166" value="" style="align=left;strokeColor=#CCCCCC;html=1;" vertex="1" parent="1">
          <mxGeometry x="960" y="500" width="80" height="20" as="geometry" />
        </mxCell>
        <mxCell id="6z6v71Y1guzTuRLKmEV8-167" value="" style="align=left;strokeColor=#CCCCCC;html=1;" vertex="1" parent="1">
          <mxGeometry x="960" y="520" width="80" height="20" as="geometry" />
        </mxCell>
        <mxCell id="6z6v71Y1guzTuRLKmEV8-168" value="" style="align=left;strokeColor=#CCCCCC;html=1;" vertex="1" parent="1">
          <mxGeometry x="960" y="540" width="80" height="20" as="geometry" />
        </mxCell>
        <mxCell id="6z6v71Y1guzTuRLKmEV8-169" value="" style="align=left;strokeColor=#CCCCCC;html=1;" vertex="1" parent="1">
          <mxGeometry x="960" y="560" width="80" height="20" as="geometry" />
        </mxCell>
        <mxCell id="6z6v71Y1guzTuRLKmEV8-170" value="" style="align=left;strokeColor=#CCCCCC;html=1;" vertex="1" parent="1">
          <mxGeometry x="960" y="580" width="80" height="20" as="geometry" />
        </mxCell>
        <mxCell id="6z6v71Y1guzTuRLKmEV8-171" value="" style="align=left;strokeColor=#CCCCCC;html=1;" vertex="1" parent="1">
          <mxGeometry x="960" y="600" width="80" height="20" as="geometry" />
        </mxCell>
        <mxCell id="6z6v71Y1guzTuRLKmEV8-172" value="" style="align=left;strokeColor=#CCCCCC;html=1;" vertex="1" parent="1">
          <mxGeometry x="960" y="620" width="80" height="20" as="geometry" />
        </mxCell>
        <mxCell id="6z6v71Y1guzTuRLKmEV8-173" value="" style="align=left;strokeColor=#CCCCCC;html=1;" vertex="1" parent="1">
          <mxGeometry x="960" y="640" width="80" height="20" as="geometry" />
        </mxCell>
        <mxCell id="6z6v71Y1guzTuRLKmEV8-174" value="" style="align=left;strokeColor=#CCCCCC;html=1;" vertex="1" parent="1">
          <mxGeometry x="960" y="660" width="80" height="20" as="geometry" />
        </mxCell>
        <mxCell id="6z6v71Y1guzTuRLKmEV8-175" value="" style="align=left;strokeColor=#CCCCCC;html=1;" vertex="1" parent="1">
          <mxGeometry x="960" y="680" width="80" height="20" as="geometry" />
        </mxCell>
        <mxCell id="6z6v71Y1guzTuRLKmEV8-176" value="" style="align=left;strokeColor=#CCCCCC;html=1;" vertex="1" parent="1">
          <mxGeometry x="960" y="700" width="80" height="20" as="geometry" />
        </mxCell>
        <mxCell id="6z6v71Y1guzTuRLKmEV8-177" value="" style="align=left;strokeColor=#CCCCCC;html=1;" vertex="1" parent="1">
          <mxGeometry x="960" y="720" width="80" height="20" as="geometry" />
        </mxCell>
        <mxCell id="6z6v71Y1guzTuRLKmEV8-178" value="" style="align=left;strokeColor=#CCCCCC;html=1;" vertex="1" parent="1">
          <mxGeometry x="960" y="740" width="80" height="20" as="geometry" />
        </mxCell>
        <mxCell id="6z6v71Y1guzTuRLKmEV8-180" value="" style="align=left;strokeColor=#CCCCCC;html=1;" vertex="1" parent="1">
          <mxGeometry x="1040" y="500" width="80" height="20" as="geometry" />
        </mxCell>
        <mxCell id="6z6v71Y1guzTuRLKmEV8-181" value="" style="align=left;strokeColor=#CCCCCC;html=1;" vertex="1" parent="1">
          <mxGeometry x="1040" y="520" width="80" height="20" as="geometry" />
        </mxCell>
        <mxCell id="6z6v71Y1guzTuRLKmEV8-182" value="" style="align=left;strokeColor=#CCCCCC;html=1;" vertex="1" parent="1">
          <mxGeometry x="1040" y="540" width="80" height="20" as="geometry" />
        </mxCell>
        <mxCell id="6z6v71Y1guzTuRLKmEV8-183" value="" style="align=left;strokeColor=#CCCCCC;html=1;" vertex="1" parent="1">
          <mxGeometry x="1040" y="560" width="80" height="20" as="geometry" />
        </mxCell>
        <mxCell id="6z6v71Y1guzTuRLKmEV8-184" value="" style="align=left;strokeColor=#CCCCCC;html=1;" vertex="1" parent="1">
          <mxGeometry x="1040" y="580" width="80" height="20" as="geometry" />
        </mxCell>
        <mxCell id="6z6v71Y1guzTuRLKmEV8-186" value="" style="align=left;strokeColor=#CCCCCC;html=1;" vertex="1" parent="1">
          <mxGeometry x="1040" y="620" width="80" height="20" as="geometry" />
        </mxCell>
        <mxCell id="6z6v71Y1guzTuRLKmEV8-187" value="" style="align=left;strokeColor=#CCCCCC;html=1;" vertex="1" parent="1">
          <mxGeometry x="1040" y="640" width="80" height="20" as="geometry" />
        </mxCell>
        <mxCell id="6z6v71Y1guzTuRLKmEV8-188" value="" style="align=left;strokeColor=#CCCCCC;html=1;" vertex="1" parent="1">
          <mxGeometry x="1040" y="660" width="80" height="20" as="geometry" />
        </mxCell>
        <mxCell id="6z6v71Y1guzTuRLKmEV8-189" value="" style="align=left;strokeColor=#CCCCCC;html=1;" vertex="1" parent="1">
          <mxGeometry x="1040" y="680" width="80" height="20" as="geometry" />
        </mxCell>
        <mxCell id="6z6v71Y1guzTuRLKmEV8-190" value="" style="align=left;strokeColor=#CCCCCC;html=1;" vertex="1" parent="1">
          <mxGeometry x="1040" y="700" width="80" height="20" as="geometry" />
        </mxCell>
        <mxCell id="6z6v71Y1guzTuRLKmEV8-191" value="" style="align=left;strokeColor=#CCCCCC;html=1;" vertex="1" parent="1">
          <mxGeometry x="1040" y="720" width="80" height="20" as="geometry" />
        </mxCell>
        <mxCell id="6z6v71Y1guzTuRLKmEV8-192" value="" style="align=left;strokeColor=#CCCCCC;html=1;" vertex="1" parent="1">
          <mxGeometry x="1040" y="740" width="80" height="20" as="geometry" />
        </mxCell>
        <mxCell id="6z6v71Y1guzTuRLKmEV8-193" value="Semaine 1" style="strokeWidth=1;fontStyle=0;html=1;" vertex="1" parent="1">
          <mxGeometry x="480" y="460" width="80" height="20" as="geometry" />
        </mxCell>
        <mxCell id="6z6v71Y1guzTuRLKmEV8-194" value="Semaine 2" style="strokeWidth=1;fontStyle=0;html=1;" vertex="1" parent="1">
          <mxGeometry x="560" y="460" width="80" height="20" as="geometry" />
        </mxCell>
        <mxCell id="6z6v71Y1guzTuRLKmEV8-195" value="Semaine 3" style="strokeWidth=1;fontStyle=0;html=1;" vertex="1" parent="1">
          <mxGeometry x="640" y="460" width="80" height="20" as="geometry" />
        </mxCell>
        <mxCell id="6z6v71Y1guzTuRLKmEV8-196" value="Semaine 4" style="strokeWidth=1;fontStyle=0;html=1;" vertex="1" parent="1">
          <mxGeometry x="720" y="460" width="80" height="20" as="geometry" />
        </mxCell>
        <mxCell id="6z6v71Y1guzTuRLKmEV8-197" value="Semaine 1" style="strokeWidth=1;fontStyle=0;html=1;" vertex="1" parent="1">
          <mxGeometry x="800" y="460" width="80" height="20" as="geometry" />
        </mxCell>
        <mxCell id="6z6v71Y1guzTuRLKmEV8-198" value="Semaine 2" style="strokeWidth=1;fontStyle=0;html=1;" vertex="1" parent="1">
          <mxGeometry x="880" y="460" width="80" height="20" as="geometry" />
        </mxCell>
        <mxCell id="6z6v71Y1guzTuRLKmEV8-199" value="Semaine 3" style="strokeWidth=1;fontStyle=0;html=1;" vertex="1" parent="1">
          <mxGeometry x="960" y="460" width="80" height="20" as="geometry" />
        </mxCell>
        <mxCell id="6z6v71Y1guzTuRLKmEV8-200" value="Semaine 4" style="strokeWidth=1;fontStyle=0;html=1;" vertex="1" parent="1">
          <mxGeometry x="1040" y="460" width="80" height="20" as="geometry" />
        </mxCell>
        <mxCell id="6z6v71Y1guzTuRLKmEV8-201" value="Semaine 1" style="strokeWidth=1;fontStyle=0;html=1;" vertex="1" parent="1">
          <mxGeometry x="1120" y="460" width="80" height="20" as="geometry" />
        </mxCell>
        <mxCell id="6z6v71Y1guzTuRLKmEV8-202" value="Semaine 2" style="strokeWidth=1;fontStyle=0;html=1;" vertex="1" parent="1">
          <mxGeometry x="1200" y="460" width="80" height="20" as="geometry" />
        </mxCell>
        <mxCell id="6z6v71Y1guzTuRLKmEV8-203" value="Semaine 3" style="strokeWidth=1;fontStyle=0;html=1;" vertex="1" parent="1">
          <mxGeometry x="1280" y="460" width="80" height="20" as="geometry" />
        </mxCell>
        <mxCell id="6z6v71Y1guzTuRLKmEV8-204" value="Semaine 4" style="strokeWidth=1;fontStyle=0;html=1;" vertex="1" parent="1">
          <mxGeometry x="1360" y="460" width="80" height="20" as="geometry" />
        </mxCell>
        <mxCell id="6z6v71Y1guzTuRLKmEV8-205" value="Semaine 1" style="strokeWidth=1;fontStyle=0;html=1;" vertex="1" parent="1">
          <mxGeometry x="1440" y="460" width="80" height="20" as="geometry" />
        </mxCell>
        <mxCell id="6z6v71Y1guzTuRLKmEV8-206" value="Semaine 2" style="strokeWidth=1;fontStyle=0;html=1;" vertex="1" parent="1">
          <mxGeometry x="1520" y="460" width="80" height="20" as="geometry" />
        </mxCell>
        <mxCell id="6z6v71Y1guzTuRLKmEV8-207" value="Semaine 3" style="strokeWidth=1;fontStyle=0;html=1;" vertex="1" parent="1">
          <mxGeometry x="1600" y="460" width="80" height="20" as="geometry" />
        </mxCell>
        <mxCell id="6z6v71Y1guzTuRLKmEV8-208" value="Semaine 4" style="strokeWidth=1;fontStyle=0;html=1;" vertex="1" parent="1">
          <mxGeometry x="1680" y="460" width="80" height="20" as="geometry" />
        </mxCell>
        <mxCell id="6z6v71Y1guzTuRLKmEV8-209" value="" style="align=left;strokeColor=#CCCCCC;html=1;" vertex="1" parent="1">
          <mxGeometry x="1120" y="500" width="80" height="20" as="geometry" />
        </mxCell>
        <mxCell id="6z6v71Y1guzTuRLKmEV8-210" value="" style="align=left;strokeColor=#CCCCCC;html=1;" vertex="1" parent="1">
          <mxGeometry x="1120" y="520" width="80" height="20" as="geometry" />
        </mxCell>
        <mxCell id="6z6v71Y1guzTuRLKmEV8-211" value="" style="align=left;strokeColor=#CCCCCC;html=1;" vertex="1" parent="1">
          <mxGeometry x="1120" y="540" width="80" height="20" as="geometry" />
        </mxCell>
        <mxCell id="6z6v71Y1guzTuRLKmEV8-212" value="" style="align=left;strokeColor=#CCCCCC;html=1;" vertex="1" parent="1">
          <mxGeometry x="1120" y="560" width="80" height="20" as="geometry" />
        </mxCell>
        <mxCell id="6z6v71Y1guzTuRLKmEV8-213" value="" style="align=left;strokeColor=#CCCCCC;html=1;" vertex="1" parent="1">
          <mxGeometry x="1120" y="580" width="80" height="20" as="geometry" />
        </mxCell>
        <mxCell id="6z6v71Y1guzTuRLKmEV8-214" value="" style="align=left;strokeColor=#CCCCCC;html=1;" vertex="1" parent="1">
          <mxGeometry x="1120" y="600" width="80" height="20" as="geometry" />
        </mxCell>
        <mxCell id="6z6v71Y1guzTuRLKmEV8-215" value="" style="align=left;strokeColor=#CCCCCC;html=1;" vertex="1" parent="1">
          <mxGeometry x="1120" y="620" width="80" height="20" as="geometry" />
        </mxCell>
        <mxCell id="6z6v71Y1guzTuRLKmEV8-216" value="" style="align=left;strokeColor=#CCCCCC;html=1;" vertex="1" parent="1">
          <mxGeometry x="1120" y="640" width="80" height="20" as="geometry" />
        </mxCell>
        <mxCell id="6z6v71Y1guzTuRLKmEV8-217" value="" style="align=left;strokeColor=#CCCCCC;html=1;" vertex="1" parent="1">
          <mxGeometry x="1120" y="660" width="80" height="20" as="geometry" />
        </mxCell>
        <mxCell id="6z6v71Y1guzTuRLKmEV8-218" value="" style="align=left;strokeColor=#CCCCCC;html=1;" vertex="1" parent="1">
          <mxGeometry x="1120" y="680" width="80" height="20" as="geometry" />
        </mxCell>
        <mxCell id="6z6v71Y1guzTuRLKmEV8-219" value="" style="align=left;strokeColor=#CCCCCC;html=1;" vertex="1" parent="1">
          <mxGeometry x="1120" y="700" width="80" height="20" as="geometry" />
        </mxCell>
        <mxCell id="6z6v71Y1guzTuRLKmEV8-220" value="" style="align=left;strokeColor=#CCCCCC;html=1;" vertex="1" parent="1">
          <mxGeometry x="1120" y="720" width="80" height="20" as="geometry" />
        </mxCell>
        <mxCell id="6z6v71Y1guzTuRLKmEV8-221" value="" style="align=left;strokeColor=#CCCCCC;html=1;" vertex="1" parent="1">
          <mxGeometry x="1120" y="740" width="80" height="20" as="geometry" />
        </mxCell>
        <mxCell id="6z6v71Y1guzTuRLKmEV8-222" value="" style="align=left;strokeColor=#CCCCCC;html=1;" vertex="1" parent="1">
          <mxGeometry x="1200" y="500" width="80" height="20" as="geometry" />
        </mxCell>
        <mxCell id="6z6v71Y1guzTuRLKmEV8-223" value="" style="align=left;strokeColor=#CCCCCC;html=1;" vertex="1" parent="1">
          <mxGeometry x="1200" y="520" width="80" height="20" as="geometry" />
        </mxCell>
        <mxCell id="6z6v71Y1guzTuRLKmEV8-224" value="" style="align=left;strokeColor=#CCCCCC;html=1;" vertex="1" parent="1">
          <mxGeometry x="1200" y="540" width="80" height="20" as="geometry" />
        </mxCell>
        <mxCell id="6z6v71Y1guzTuRLKmEV8-225" value="" style="align=left;strokeColor=#CCCCCC;html=1;" vertex="1" parent="1">
          <mxGeometry x="1200" y="560" width="80" height="20" as="geometry" />
        </mxCell>
        <mxCell id="6z6v71Y1guzTuRLKmEV8-226" value="" style="align=left;strokeColor=#CCCCCC;html=1;" vertex="1" parent="1">
          <mxGeometry x="1200" y="580" width="80" height="20" as="geometry" />
        </mxCell>
        <mxCell id="6z6v71Y1guzTuRLKmEV8-227" value="" style="align=left;strokeColor=#CCCCCC;html=1;" vertex="1" parent="1">
          <mxGeometry x="1200" y="600" width="80" height="20" as="geometry" />
        </mxCell>
        <mxCell id="6z6v71Y1guzTuRLKmEV8-228" value="" style="align=left;strokeColor=#CCCCCC;html=1;" vertex="1" parent="1">
          <mxGeometry x="1200" y="620" width="80" height="20" as="geometry" />
        </mxCell>
        <mxCell id="6z6v71Y1guzTuRLKmEV8-229" value="" style="align=left;strokeColor=#CCCCCC;html=1;" vertex="1" parent="1">
          <mxGeometry x="1200" y="640" width="80" height="20" as="geometry" />
        </mxCell>
        <mxCell id="6z6v71Y1guzTuRLKmEV8-230" value="" style="align=left;strokeColor=#CCCCCC;html=1;" vertex="1" parent="1">
          <mxGeometry x="1200" y="660" width="80" height="20" as="geometry" />
        </mxCell>
        <mxCell id="6z6v71Y1guzTuRLKmEV8-231" value="" style="align=left;strokeColor=#CCCCCC;html=1;" vertex="1" parent="1">
          <mxGeometry x="1200" y="680" width="80" height="20" as="geometry" />
        </mxCell>
        <mxCell id="6z6v71Y1guzTuRLKmEV8-232" value="" style="align=left;strokeColor=#CCCCCC;html=1;" vertex="1" parent="1">
          <mxGeometry x="1200" y="700" width="80" height="20" as="geometry" />
        </mxCell>
        <mxCell id="6z6v71Y1guzTuRLKmEV8-233" value="" style="align=left;strokeColor=#CCCCCC;html=1;" vertex="1" parent="1">
          <mxGeometry x="1200" y="720" width="80" height="20" as="geometry" />
        </mxCell>
        <mxCell id="6z6v71Y1guzTuRLKmEV8-234" value="" style="align=left;strokeColor=#CCCCCC;html=1;" vertex="1" parent="1">
          <mxGeometry x="1200" y="740" width="80" height="20" as="geometry" />
        </mxCell>
        <mxCell id="6z6v71Y1guzTuRLKmEV8-235" value="" style="align=left;strokeColor=#CCCCCC;html=1;" vertex="1" parent="1">
          <mxGeometry x="1280" y="500" width="80" height="20" as="geometry" />
        </mxCell>
        <mxCell id="6z6v71Y1guzTuRLKmEV8-236" value="" style="align=left;strokeColor=#CCCCCC;html=1;" vertex="1" parent="1">
          <mxGeometry x="1280" y="520" width="80" height="20" as="geometry" />
        </mxCell>
        <mxCell id="6z6v71Y1guzTuRLKmEV8-237" value="" style="align=left;strokeColor=#CCCCCC;html=1;" vertex="1" parent="1">
          <mxGeometry x="1280" y="540" width="80" height="20" as="geometry" />
        </mxCell>
        <mxCell id="6z6v71Y1guzTuRLKmEV8-238" value="" style="align=left;strokeColor=#CCCCCC;html=1;" vertex="1" parent="1">
          <mxGeometry x="1280" y="560" width="80" height="20" as="geometry" />
        </mxCell>
        <mxCell id="6z6v71Y1guzTuRLKmEV8-239" value="" style="align=left;strokeColor=#CCCCCC;html=1;" vertex="1" parent="1">
          <mxGeometry x="1280" y="580" width="80" height="20" as="geometry" />
        </mxCell>
        <mxCell id="6z6v71Y1guzTuRLKmEV8-240" value="" style="align=left;strokeColor=#CCCCCC;html=1;" vertex="1" parent="1">
          <mxGeometry x="1280" y="600" width="80" height="20" as="geometry" />
        </mxCell>
        <mxCell id="6z6v71Y1guzTuRLKmEV8-241" value="" style="align=left;strokeColor=#CCCCCC;html=1;" vertex="1" parent="1">
          <mxGeometry x="1280" y="620" width="80" height="20" as="geometry" />
        </mxCell>
        <mxCell id="6z6v71Y1guzTuRLKmEV8-242" value="" style="align=left;strokeColor=#CCCCCC;html=1;" vertex="1" parent="1">
          <mxGeometry x="1280" y="640" width="80" height="20" as="geometry" />
        </mxCell>
        <mxCell id="6z6v71Y1guzTuRLKmEV8-243" value="" style="align=left;strokeColor=#CCCCCC;html=1;" vertex="1" parent="1">
          <mxGeometry x="1280" y="660" width="80" height="20" as="geometry" />
        </mxCell>
        <mxCell id="6z6v71Y1guzTuRLKmEV8-244" value="" style="align=left;strokeColor=#CCCCCC;html=1;" vertex="1" parent="1">
          <mxGeometry x="1280" y="680" width="80" height="20" as="geometry" />
        </mxCell>
        <mxCell id="6z6v71Y1guzTuRLKmEV8-245" value="" style="align=left;strokeColor=#CCCCCC;html=1;" vertex="1" parent="1">
          <mxGeometry x="1280" y="700" width="80" height="20" as="geometry" />
        </mxCell>
        <mxCell id="6z6v71Y1guzTuRLKmEV8-246" value="" style="align=left;strokeColor=#CCCCCC;html=1;" vertex="1" parent="1">
          <mxGeometry x="1280" y="720" width="80" height="20" as="geometry" />
        </mxCell>
        <mxCell id="6z6v71Y1guzTuRLKmEV8-247" value="" style="align=left;strokeColor=#CCCCCC;html=1;" vertex="1" parent="1">
          <mxGeometry x="1280" y="740" width="80" height="20" as="geometry" />
        </mxCell>
        <mxCell id="6z6v71Y1guzTuRLKmEV8-248" value="" style="align=left;strokeColor=#CCCCCC;html=1;" vertex="1" parent="1">
          <mxGeometry x="1360" y="500" width="80" height="20" as="geometry" />
        </mxCell>
        <mxCell id="6z6v71Y1guzTuRLKmEV8-249" value="" style="align=left;strokeColor=#CCCCCC;html=1;" vertex="1" parent="1">
          <mxGeometry x="1360" y="520" width="80" height="20" as="geometry" />
        </mxCell>
        <mxCell id="6z6v71Y1guzTuRLKmEV8-250" value="" style="align=left;strokeColor=#CCCCCC;html=1;" vertex="1" parent="1">
          <mxGeometry x="1360" y="540" width="80" height="20" as="geometry" />
        </mxCell>
        <mxCell id="6z6v71Y1guzTuRLKmEV8-251" value="" style="align=left;strokeColor=#CCCCCC;html=1;" vertex="1" parent="1">
          <mxGeometry x="1360" y="560" width="80" height="20" as="geometry" />
        </mxCell>
        <mxCell id="6z6v71Y1guzTuRLKmEV8-252" value="" style="align=left;strokeColor=#CCCCCC;html=1;" vertex="1" parent="1">
          <mxGeometry x="1360" y="580" width="80" height="20" as="geometry" />
        </mxCell>
        <mxCell id="6z6v71Y1guzTuRLKmEV8-253" value="" style="align=left;strokeColor=#CCCCCC;html=1;" vertex="1" parent="1">
          <mxGeometry x="1360" y="600" width="80" height="20" as="geometry" />
        </mxCell>
        <mxCell id="6z6v71Y1guzTuRLKmEV8-254" value="" style="align=left;strokeColor=#CCCCCC;html=1;" vertex="1" parent="1">
          <mxGeometry x="1360" y="620" width="80" height="20" as="geometry" />
        </mxCell>
        <mxCell id="6z6v71Y1guzTuRLKmEV8-255" value="" style="align=left;strokeColor=#CCCCCC;html=1;" vertex="1" parent="1">
          <mxGeometry x="1360" y="640" width="80" height="20" as="geometry" />
        </mxCell>
        <mxCell id="6z6v71Y1guzTuRLKmEV8-256" value="" style="align=left;strokeColor=#CCCCCC;html=1;" vertex="1" parent="1">
          <mxGeometry x="1360" y="660" width="80" height="20" as="geometry" />
        </mxCell>
        <mxCell id="6z6v71Y1guzTuRLKmEV8-257" value="" style="align=left;strokeColor=#CCCCCC;html=1;" vertex="1" parent="1">
          <mxGeometry x="1360" y="680" width="80" height="20" as="geometry" />
        </mxCell>
        <mxCell id="6z6v71Y1guzTuRLKmEV8-258" value="" style="align=left;strokeColor=#CCCCCC;html=1;" vertex="1" parent="1">
          <mxGeometry x="1360" y="700" width="80" height="20" as="geometry" />
        </mxCell>
        <mxCell id="6z6v71Y1guzTuRLKmEV8-259" value="" style="align=left;strokeColor=#CCCCCC;html=1;" vertex="1" parent="1">
          <mxGeometry x="1360" y="720" width="80" height="20" as="geometry" />
        </mxCell>
        <mxCell id="6z6v71Y1guzTuRLKmEV8-260" value="" style="align=left;strokeColor=#CCCCCC;html=1;" vertex="1" parent="1">
          <mxGeometry x="1360" y="740" width="80" height="20" as="geometry" />
        </mxCell>
        <mxCell id="6z6v71Y1guzTuRLKmEV8-261" value="" style="align=left;strokeColor=#CCCCCC;html=1;" vertex="1" parent="1">
          <mxGeometry x="1440" y="500" width="80" height="20" as="geometry" />
        </mxCell>
        <mxCell id="6z6v71Y1guzTuRLKmEV8-262" value="" style="align=left;strokeColor=#CCCCCC;html=1;" vertex="1" parent="1">
          <mxGeometry x="1440" y="520" width="80" height="20" as="geometry" />
        </mxCell>
        <mxCell id="6z6v71Y1guzTuRLKmEV8-263" value="" style="align=left;strokeColor=#CCCCCC;html=1;" vertex="1" parent="1">
          <mxGeometry x="1440" y="540" width="80" height="20" as="geometry" />
        </mxCell>
        <mxCell id="6z6v71Y1guzTuRLKmEV8-264" value="" style="align=left;strokeColor=#CCCCCC;html=1;" vertex="1" parent="1">
          <mxGeometry x="1440" y="560" width="80" height="20" as="geometry" />
        </mxCell>
        <mxCell id="6z6v71Y1guzTuRLKmEV8-265" value="" style="align=left;strokeColor=#CCCCCC;html=1;" vertex="1" parent="1">
          <mxGeometry x="1440" y="580" width="80" height="20" as="geometry" />
        </mxCell>
        <mxCell id="6z6v71Y1guzTuRLKmEV8-266" value="" style="align=left;strokeColor=#CCCCCC;html=1;" vertex="1" parent="1">
          <mxGeometry x="1440" y="600" width="80" height="20" as="geometry" />
        </mxCell>
        <mxCell id="6z6v71Y1guzTuRLKmEV8-267" value="" style="align=left;strokeColor=#CCCCCC;html=1;" vertex="1" parent="1">
          <mxGeometry x="1440" y="620" width="80" height="20" as="geometry" />
        </mxCell>
        <mxCell id="6z6v71Y1guzTuRLKmEV8-268" value="" style="align=left;strokeColor=#CCCCCC;html=1;" vertex="1" parent="1">
          <mxGeometry x="1440" y="640" width="80" height="20" as="geometry" />
        </mxCell>
        <mxCell id="6z6v71Y1guzTuRLKmEV8-269" value="" style="align=left;strokeColor=#CCCCCC;html=1;" vertex="1" parent="1">
          <mxGeometry x="1440" y="660" width="80" height="20" as="geometry" />
        </mxCell>
        <mxCell id="6z6v71Y1guzTuRLKmEV8-270" value="" style="align=left;strokeColor=#CCCCCC;html=1;" vertex="1" parent="1">
          <mxGeometry x="1440" y="680" width="80" height="20" as="geometry" />
        </mxCell>
        <mxCell id="6z6v71Y1guzTuRLKmEV8-271" value="" style="align=left;strokeColor=#CCCCCC;html=1;" vertex="1" parent="1">
          <mxGeometry x="1440" y="700" width="80" height="20" as="geometry" />
        </mxCell>
        <mxCell id="6z6v71Y1guzTuRLKmEV8-272" value="" style="align=left;strokeColor=#CCCCCC;html=1;" vertex="1" parent="1">
          <mxGeometry x="1440" y="720" width="80" height="20" as="geometry" />
        </mxCell>
        <mxCell id="6z6v71Y1guzTuRLKmEV8-273" value="" style="align=left;strokeColor=#CCCCCC;html=1;" vertex="1" parent="1">
          <mxGeometry x="1440" y="740" width="80" height="20" as="geometry" />
        </mxCell>
        <mxCell id="6z6v71Y1guzTuRLKmEV8-274" value="" style="align=left;strokeColor=#CCCCCC;html=1;" vertex="1" parent="1">
          <mxGeometry x="1520" y="500" width="80" height="20" as="geometry" />
        </mxCell>
        <mxCell id="6z6v71Y1guzTuRLKmEV8-275" value="" style="align=left;strokeColor=#CCCCCC;html=1;" vertex="1" parent="1">
          <mxGeometry x="1520" y="520" width="80" height="20" as="geometry" />
        </mxCell>
        <mxCell id="6z6v71Y1guzTuRLKmEV8-276" value="" style="align=left;strokeColor=#CCCCCC;html=1;" vertex="1" parent="1">
          <mxGeometry x="1520" y="540" width="80" height="20" as="geometry" />
        </mxCell>
        <mxCell id="6z6v71Y1guzTuRLKmEV8-277" value="" style="align=left;strokeColor=#CCCCCC;html=1;" vertex="1" parent="1">
          <mxGeometry x="1520" y="560" width="80" height="20" as="geometry" />
        </mxCell>
        <mxCell id="6z6v71Y1guzTuRLKmEV8-278" value="" style="align=left;strokeColor=#CCCCCC;html=1;" vertex="1" parent="1">
          <mxGeometry x="1520" y="580" width="80" height="20" as="geometry" />
        </mxCell>
        <mxCell id="6z6v71Y1guzTuRLKmEV8-279" value="" style="align=left;strokeColor=#CCCCCC;html=1;" vertex="1" parent="1">
          <mxGeometry x="1520" y="600" width="80" height="20" as="geometry" />
        </mxCell>
        <mxCell id="6z6v71Y1guzTuRLKmEV8-280" value="" style="align=left;strokeColor=#CCCCCC;html=1;" vertex="1" parent="1">
          <mxGeometry x="1520" y="620" width="80" height="20" as="geometry" />
        </mxCell>
        <mxCell id="6z6v71Y1guzTuRLKmEV8-281" value="" style="align=left;strokeColor=#CCCCCC;html=1;" vertex="1" parent="1">
          <mxGeometry x="1520" y="640" width="80" height="20" as="geometry" />
        </mxCell>
        <mxCell id="6z6v71Y1guzTuRLKmEV8-282" value="" style="align=left;strokeColor=#CCCCCC;html=1;" vertex="1" parent="1">
          <mxGeometry x="1520" y="660" width="80" height="20" as="geometry" />
        </mxCell>
        <mxCell id="6z6v71Y1guzTuRLKmEV8-283" value="" style="align=left;strokeColor=#CCCCCC;html=1;" vertex="1" parent="1">
          <mxGeometry x="1520" y="680" width="80" height="20" as="geometry" />
        </mxCell>
        <mxCell id="6z6v71Y1guzTuRLKmEV8-284" value="" style="align=left;strokeColor=#CCCCCC;html=1;" vertex="1" parent="1">
          <mxGeometry x="1520" y="700" width="80" height="20" as="geometry" />
        </mxCell>
        <mxCell id="6z6v71Y1guzTuRLKmEV8-285" value="" style="align=left;strokeColor=#CCCCCC;html=1;" vertex="1" parent="1">
          <mxGeometry x="1520" y="720" width="80" height="20" as="geometry" />
        </mxCell>
        <mxCell id="6z6v71Y1guzTuRLKmEV8-286" value="" style="align=left;strokeColor=#CCCCCC;html=1;" vertex="1" parent="1">
          <mxGeometry x="1520" y="740" width="80" height="20" as="geometry" />
        </mxCell>
        <mxCell id="6z6v71Y1guzTuRLKmEV8-287" value="" style="align=left;strokeColor=#CCCCCC;html=1;" vertex="1" parent="1">
          <mxGeometry x="1600" y="500" width="80" height="20" as="geometry" />
        </mxCell>
        <mxCell id="6z6v71Y1guzTuRLKmEV8-288" value="" style="align=left;strokeColor=#CCCCCC;html=1;" vertex="1" parent="1">
          <mxGeometry x="1600" y="520" width="80" height="20" as="geometry" />
        </mxCell>
        <mxCell id="6z6v71Y1guzTuRLKmEV8-289" value="" style="align=left;strokeColor=#CCCCCC;html=1;" vertex="1" parent="1">
          <mxGeometry x="1600" y="540" width="80" height="20" as="geometry" />
        </mxCell>
        <mxCell id="6z6v71Y1guzTuRLKmEV8-290" value="" style="align=left;strokeColor=#CCCCCC;html=1;" vertex="1" parent="1">
          <mxGeometry x="1600" y="560" width="80" height="20" as="geometry" />
        </mxCell>
        <mxCell id="6z6v71Y1guzTuRLKmEV8-291" value="" style="align=left;strokeColor=#CCCCCC;html=1;" vertex="1" parent="1">
          <mxGeometry x="1600" y="580" width="80" height="20" as="geometry" />
        </mxCell>
        <mxCell id="6z6v71Y1guzTuRLKmEV8-292" value="" style="align=left;strokeColor=#CCCCCC;html=1;" vertex="1" parent="1">
          <mxGeometry x="1600" y="600" width="80" height="20" as="geometry" />
        </mxCell>
        <mxCell id="6z6v71Y1guzTuRLKmEV8-293" value="" style="align=left;strokeColor=#CCCCCC;html=1;" vertex="1" parent="1">
          <mxGeometry x="1600" y="620" width="80" height="20" as="geometry" />
        </mxCell>
        <mxCell id="6z6v71Y1guzTuRLKmEV8-294" value="" style="align=left;strokeColor=#CCCCCC;html=1;" vertex="1" parent="1">
          <mxGeometry x="1600" y="640" width="80" height="20" as="geometry" />
        </mxCell>
        <mxCell id="6z6v71Y1guzTuRLKmEV8-295" value="" style="align=left;strokeColor=#CCCCCC;html=1;" vertex="1" parent="1">
          <mxGeometry x="1600" y="660" width="80" height="20" as="geometry" />
        </mxCell>
        <mxCell id="6z6v71Y1guzTuRLKmEV8-296" value="" style="align=left;strokeColor=#CCCCCC;html=1;" vertex="1" parent="1">
          <mxGeometry x="1600" y="680" width="80" height="20" as="geometry" />
        </mxCell>
        <mxCell id="6z6v71Y1guzTuRLKmEV8-297" value="" style="align=left;strokeColor=#CCCCCC;html=1;" vertex="1" parent="1">
          <mxGeometry x="1600" y="700" width="80" height="20" as="geometry" />
        </mxCell>
        <mxCell id="6z6v71Y1guzTuRLKmEV8-298" value="" style="align=left;strokeColor=#CCCCCC;html=1;" vertex="1" parent="1">
          <mxGeometry x="1600" y="720" width="80" height="20" as="geometry" />
        </mxCell>
        <mxCell id="6z6v71Y1guzTuRLKmEV8-299" value="" style="align=left;strokeColor=#CCCCCC;html=1;" vertex="1" parent="1">
          <mxGeometry x="1600" y="740" width="80" height="20" as="geometry" />
        </mxCell>
        <mxCell id="6z6v71Y1guzTuRLKmEV8-300" value="" style="align=left;strokeColor=#CCCCCC;html=1;" vertex="1" parent="1">
          <mxGeometry x="1680" y="500" width="80" height="20" as="geometry" />
        </mxCell>
        <mxCell id="6z6v71Y1guzTuRLKmEV8-301" value="" style="align=left;strokeColor=#CCCCCC;html=1;" vertex="1" parent="1">
          <mxGeometry x="1680" y="520" width="80" height="20" as="geometry" />
        </mxCell>
        <mxCell id="6z6v71Y1guzTuRLKmEV8-302" value="" style="align=left;strokeColor=#CCCCCC;html=1;" vertex="1" parent="1">
          <mxGeometry x="1680" y="540" width="80" height="20" as="geometry" />
        </mxCell>
        <mxCell id="6z6v71Y1guzTuRLKmEV8-303" value="" style="align=left;strokeColor=#CCCCCC;html=1;" vertex="1" parent="1">
          <mxGeometry x="1680" y="560" width="80" height="20" as="geometry" />
        </mxCell>
        <mxCell id="6z6v71Y1guzTuRLKmEV8-304" value="" style="align=left;strokeColor=#CCCCCC;html=1;" vertex="1" parent="1">
          <mxGeometry x="1680" y="580" width="80" height="20" as="geometry" />
        </mxCell>
        <mxCell id="6z6v71Y1guzTuRLKmEV8-305" value="" style="align=left;strokeColor=#CCCCCC;html=1;" vertex="1" parent="1">
          <mxGeometry x="1680" y="600" width="80" height="20" as="geometry" />
        </mxCell>
        <mxCell id="6z6v71Y1guzTuRLKmEV8-306" value="" style="align=left;strokeColor=#CCCCCC;html=1;" vertex="1" parent="1">
          <mxGeometry x="1680" y="620" width="80" height="20" as="geometry" />
        </mxCell>
        <mxCell id="6z6v71Y1guzTuRLKmEV8-307" value="" style="align=left;strokeColor=#CCCCCC;html=1;" vertex="1" parent="1">
          <mxGeometry x="1680" y="640" width="80" height="20" as="geometry" />
        </mxCell>
        <mxCell id="6z6v71Y1guzTuRLKmEV8-308" value="" style="align=left;strokeColor=#CCCCCC;html=1;" vertex="1" parent="1">
          <mxGeometry x="1680" y="660" width="80" height="20" as="geometry" />
        </mxCell>
        <mxCell id="6z6v71Y1guzTuRLKmEV8-309" value="" style="align=left;strokeColor=#CCCCCC;html=1;" vertex="1" parent="1">
          <mxGeometry x="1680" y="680" width="80" height="20" as="geometry" />
        </mxCell>
        <mxCell id="6z6v71Y1guzTuRLKmEV8-310" value="" style="align=left;strokeColor=#CCCCCC;html=1;" vertex="1" parent="1">
          <mxGeometry x="1680" y="700" width="80" height="20" as="geometry" />
        </mxCell>
        <mxCell id="6z6v71Y1guzTuRLKmEV8-311" value="" style="align=left;strokeColor=#CCCCCC;html=1;" vertex="1" parent="1">
          <mxGeometry x="1680" y="720" width="80" height="20" as="geometry" />
        </mxCell>
        <mxCell id="6z6v71Y1guzTuRLKmEV8-312" value="" style="align=left;strokeColor=#CCCCCC;html=1;" vertex="1" parent="1">
          <mxGeometry x="1680" y="740" width="80" height="20" as="geometry" />
        </mxCell>
        <mxCell id="6z6v71Y1guzTuRLKmEV8-313" value="" style="align=left;strokeColor=#CCCCCC;html=1;" vertex="1" parent="1">
          <mxGeometry x="640" y="500" width="80" height="20" as="geometry" />
        </mxCell>
        <mxCell id="6z6v71Y1guzTuRLKmEV8-314" value="" style="align=left;strokeColor=#CCCCCC;html=1;" vertex="1" parent="1">
          <mxGeometry x="640" y="520" width="80" height="20" as="geometry" />
        </mxCell>
        <mxCell id="6z6v71Y1guzTuRLKmEV8-315" value="" style="align=left;strokeColor=#CCCCCC;html=1;" vertex="1" parent="1">
          <mxGeometry x="640" y="540" width="80" height="20" as="geometry" />
        </mxCell>
        <mxCell id="6z6v71Y1guzTuRLKmEV8-316" value="" style="align=left;strokeColor=#CCCCCC;html=1;" vertex="1" parent="1">
          <mxGeometry x="640" y="560" width="80" height="20" as="geometry" />
        </mxCell>
        <mxCell id="6z6v71Y1guzTuRLKmEV8-317" value="" style="align=left;strokeColor=#CCCCCC;html=1;" vertex="1" parent="1">
          <mxGeometry x="640" y="580" width="80" height="20" as="geometry" />
        </mxCell>
        <mxCell id="6z6v71Y1guzTuRLKmEV8-318" value="" style="align=left;strokeColor=#CCCCCC;html=1;" vertex="1" parent="1">
          <mxGeometry x="640" y="600" width="80" height="20" as="geometry" />
        </mxCell>
        <mxCell id="6z6v71Y1guzTuRLKmEV8-319" value="" style="align=left;strokeColor=#CCCCCC;html=1;" vertex="1" parent="1">
          <mxGeometry x="640" y="620" width="80" height="20" as="geometry" />
        </mxCell>
        <mxCell id="6z6v71Y1guzTuRLKmEV8-320" value="" style="align=left;strokeColor=#CCCCCC;html=1;" vertex="1" parent="1">
          <mxGeometry x="640" y="640" width="80" height="20" as="geometry" />
        </mxCell>
        <mxCell id="6z6v71Y1guzTuRLKmEV8-321" value="" style="align=left;strokeColor=#CCCCCC;html=1;" vertex="1" parent="1">
          <mxGeometry x="640" y="660" width="80" height="20" as="geometry" />
        </mxCell>
        <mxCell id="6z6v71Y1guzTuRLKmEV8-322" value="" style="align=left;strokeColor=#CCCCCC;html=1;" vertex="1" parent="1">
          <mxGeometry x="640" y="680" width="80" height="20" as="geometry" />
        </mxCell>
        <mxCell id="6z6v71Y1guzTuRLKmEV8-323" value="" style="align=left;strokeColor=#CCCCCC;html=1;" vertex="1" parent="1">
          <mxGeometry x="640" y="700" width="80" height="20" as="geometry" />
        </mxCell>
        <mxCell id="6z6v71Y1guzTuRLKmEV8-324" value="" style="align=left;strokeColor=#CCCCCC;html=1;" vertex="1" parent="1">
          <mxGeometry x="640" y="720" width="80" height="20" as="geometry" />
        </mxCell>
        <mxCell id="6z6v71Y1guzTuRLKmEV8-325" value="" style="align=left;strokeColor=#CCCCCC;html=1;" vertex="1" parent="1">
          <mxGeometry x="640" y="740" width="80" height="20" as="geometry" />
        </mxCell>
        <mxCell id="6z6v71Y1guzTuRLKmEV8-326" value="" style="align=left;strokeColor=#CCCCCC;html=1;" vertex="1" parent="1">
          <mxGeometry x="240" y="500" width="80" height="20" as="geometry" />
        </mxCell>
        <mxCell id="6z6v71Y1guzTuRLKmEV8-327" value="" style="align=left;strokeColor=#CCCCCC;html=1;" vertex="1" parent="1">
          <mxGeometry x="240" y="520" width="80" height="20" as="geometry" />
        </mxCell>
        <mxCell id="6z6v71Y1guzTuRLKmEV8-328" value="" style="align=left;strokeColor=#CCCCCC;html=1;" vertex="1" parent="1">
          <mxGeometry x="240" y="540" width="80" height="20" as="geometry" />
        </mxCell>
        <mxCell id="6z6v71Y1guzTuRLKmEV8-329" value="" style="align=left;strokeColor=#CCCCCC;html=1;" vertex="1" parent="1">
          <mxGeometry x="240" y="560" width="80" height="20" as="geometry" />
        </mxCell>
        <mxCell id="6z6v71Y1guzTuRLKmEV8-330" value="" style="align=left;strokeColor=#CCCCCC;html=1;" vertex="1" parent="1">
          <mxGeometry x="240" y="580" width="80" height="20" as="geometry" />
        </mxCell>
        <mxCell id="6z6v71Y1guzTuRLKmEV8-331" value="" style="align=left;strokeColor=#CCCCCC;html=1;" vertex="1" parent="1">
          <mxGeometry x="240" y="600" width="80" height="20" as="geometry" />
        </mxCell>
        <mxCell id="6z6v71Y1guzTuRLKmEV8-332" value="" style="align=left;strokeColor=#CCCCCC;html=1;" vertex="1" parent="1">
          <mxGeometry x="240" y="620" width="80" height="20" as="geometry" />
        </mxCell>
        <mxCell id="6z6v71Y1guzTuRLKmEV8-333" value="" style="align=left;strokeColor=#CCCCCC;html=1;" vertex="1" parent="1">
          <mxGeometry x="240" y="640" width="80" height="20" as="geometry" />
        </mxCell>
        <mxCell id="6z6v71Y1guzTuRLKmEV8-334" value="" style="align=left;strokeColor=#CCCCCC;html=1;" vertex="1" parent="1">
          <mxGeometry x="240" y="660" width="80" height="20" as="geometry" />
        </mxCell>
        <mxCell id="6z6v71Y1guzTuRLKmEV8-335" value="" style="align=left;strokeColor=#CCCCCC;html=1;" vertex="1" parent="1">
          <mxGeometry x="240" y="680" width="80" height="20" as="geometry" />
        </mxCell>
        <mxCell id="6z6v71Y1guzTuRLKmEV8-336" value="" style="align=left;strokeColor=#CCCCCC;html=1;" vertex="1" parent="1">
          <mxGeometry x="240" y="700" width="80" height="20" as="geometry" />
        </mxCell>
        <mxCell id="6z6v71Y1guzTuRLKmEV8-337" value="" style="align=left;strokeColor=#CCCCCC;html=1;" vertex="1" parent="1">
          <mxGeometry x="240" y="720" width="80" height="20" as="geometry" />
        </mxCell>
        <mxCell id="6z6v71Y1guzTuRLKmEV8-338" value="" style="align=left;strokeColor=#CCCCCC;html=1;" vertex="1" parent="1">
          <mxGeometry x="240" y="740" width="80" height="20" as="geometry" />
        </mxCell>
        <mxCell id="6z6v71Y1guzTuRLKmEV8-339" value="" style="align=left;strokeColor=#CCCCCC;html=1;" vertex="1" parent="1">
          <mxGeometry x="160" y="500" width="80" height="20" as="geometry" />
        </mxCell>
        <mxCell id="6z6v71Y1guzTuRLKmEV8-340" value="" style="align=left;strokeColor=#CCCCCC;html=1;" vertex="1" parent="1">
          <mxGeometry x="160" y="520" width="80" height="20" as="geometry" />
        </mxCell>
        <mxCell id="6z6v71Y1guzTuRLKmEV8-341" value="" style="align=left;strokeColor=#CCCCCC;html=1;" vertex="1" parent="1">
          <mxGeometry x="160" y="540" width="80" height="20" as="geometry" />
        </mxCell>
        <mxCell id="6z6v71Y1guzTuRLKmEV8-342" value="" style="align=left;strokeColor=#CCCCCC;html=1;" vertex="1" parent="1">
          <mxGeometry x="160" y="560" width="80" height="20" as="geometry" />
        </mxCell>
        <mxCell id="6z6v71Y1guzTuRLKmEV8-343" value="" style="align=left;strokeColor=#CCCCCC;html=1;" vertex="1" parent="1">
          <mxGeometry x="160" y="580" width="80" height="20" as="geometry" />
        </mxCell>
        <mxCell id="6z6v71Y1guzTuRLKmEV8-344" value="" style="align=left;strokeColor=#CCCCCC;html=1;" vertex="1" parent="1">
          <mxGeometry x="160" y="600" width="80" height="20" as="geometry" />
        </mxCell>
        <mxCell id="6z6v71Y1guzTuRLKmEV8-345" value="" style="align=left;strokeColor=#CCCCCC;html=1;" vertex="1" parent="1">
          <mxGeometry x="160" y="620" width="80" height="20" as="geometry" />
        </mxCell>
        <mxCell id="6z6v71Y1guzTuRLKmEV8-346" value="" style="align=left;strokeColor=#CCCCCC;html=1;" vertex="1" parent="1">
          <mxGeometry x="160" y="640" width="80" height="20" as="geometry" />
        </mxCell>
        <mxCell id="6z6v71Y1guzTuRLKmEV8-347" value="" style="align=left;strokeColor=#CCCCCC;html=1;" vertex="1" parent="1">
          <mxGeometry x="160" y="660" width="80" height="20" as="geometry" />
        </mxCell>
        <mxCell id="6z6v71Y1guzTuRLKmEV8-348" value="" style="align=left;strokeColor=#CCCCCC;html=1;" vertex="1" parent="1">
          <mxGeometry x="160" y="680" width="80" height="20" as="geometry" />
        </mxCell>
        <mxCell id="6z6v71Y1guzTuRLKmEV8-349" value="" style="align=left;strokeColor=#CCCCCC;html=1;" vertex="1" parent="1">
          <mxGeometry x="160" y="700" width="80" height="20" as="geometry" />
        </mxCell>
        <mxCell id="6z6v71Y1guzTuRLKmEV8-350" value="" style="align=left;strokeColor=#CCCCCC;html=1;" vertex="1" parent="1">
          <mxGeometry x="160" y="720" width="80" height="20" as="geometry" />
        </mxCell>
        <mxCell id="6z6v71Y1guzTuRLKmEV8-351" value="" style="align=left;strokeColor=#CCCCCC;html=1;" vertex="1" parent="1">
          <mxGeometry x="160" y="740" width="80" height="20" as="geometry" />
        </mxCell>
      </root>
    </mxGraphModel>
  </diagram>
</mxfile>
